<svg xmlns="http://www.w3.org/2000/svg" viewBox="0 0 620 620" role="img" aria-label="Suculentas decorativas">
  <defs>
    <linearGradient id="leaf" x1="180" x2="440" y1="80" y2="410" gradientUnits="userSpaceOnUse">
      <stop stop-color="#8fb184"/>
      <stop offset=".6" stop-color="#526b45"/>
      <stop offset="1" stop-color="#263b28"/>
    </linearGradient>
    <linearGradient id="pot" x1="180" x2="430" y1="360" y2="560" gradientUnits="userSpaceOnUse">
      <stop stop-color="#e6b99f"/>
      <stop offset="1" stop-color="#c8754d"/>
    </linearGradient>
  </defs>
  <rect width="620" height="620" rx="72" fill="#fffdf8"/>
  <circle cx="473" cy="137" r="78" fill="#d9b66d" opacity=".25"/>
  <circle cx="132" cy="480" r="102" fill="#7b9b72" opacity=".14"/>
  <ellipse cx="310" cy="535" rx="180" ry="34" fill="#263b28" opacity=".12"/>
  <path d="M206 384h208l-38 142H244l-38-142Z" fill="url(#pot)"/>
  <path d="M182 353h256c15 0 26 12 26 26v22H156v-22c0-14 12-26 26-26Z" fill="#f2d0ba"/>
  <path d="M310 84c63 62 112 122 112 184a112 112 0 0 1-224 0c0-62 49-122 112-184Z" fill="url(#leaf)"/>
  <path d="M230 258c58 0 102 44 102 102-58 0-102-44-102-102Z" fill="#7b9b72"/>
  <path d="M390 258c-58 0-102 44-102 102 58 0 102-44 102-102Z" fill="#9bb98f"/>
  <path d="M250 180c38 20 65 61 65 109-38-20-65-61-65-109Z" fill="#d9b66d" opacity=".78"/>
  <path d="M370 180c-38 20-65 61-65 109 38-20 65-61 65-109Z" fill="#e6b99f" opacity=".78"/>
  <path d="M310 136v256" stroke="#fffdf8" stroke-width="14" stroke-linecap="round" opacity=".7"/>
  <circle cx="225" cy="406" r="8" fill="#fffdf8" opacity=".55"/>
  <circle cx="386" cy="438" r="7" fill="#fffdf8" opacity=".45"/>
  <circle cx="315" cy="482" r="6" fill="#fffdf8" opacity=".4"/>
</svg>
