<svg xmlns="http://www.w3.org/2000/svg" width="1200" height="630" viewBox="0 0 1200 630">
  <defs>
    <linearGradient id="bg" x1="0" y1="0" x2="1" y2="1">
      <stop stop-color="#fbf7ee"/>
      <stop offset=".55" stop-color="#f3dfce"/>
      <stop offset="1" stop-color="#d8e1cf"/>
    </linearGradient>
  </defs>
  <rect width="1200" height="630" fill="url(#bg)"/>
  <circle cx="965" cy="130" r="180" fill="#7b9b72" opacity=".25"/>
  <circle cx="146" cy="522" r="230" fill="#c8754d" opacity=".18"/>
  <g transform="translate(725 145)">
    <ellipse cx="125" cy="225" rx="145" ry="38" fill="#263b28" opacity=".15"/>
    <path d="M62 220h126l-22 128H84L62 220Z" fill="#c8754d"/>
    <path d="M48 207h154v35H48z" fill="#e6b99f"/>
    <path d="M125 62c42 42 76 83 76 126a76 76 0 1 1-152 0c0-43 34-84 76-126Z" fill="#526b45"/>
    <path d="M81 169c34 0 59 25 59 59-34 0-59-25-59-59Z" fill="#7b9b72"/>
    <path d="M170 169c-34 0-59 25-59 59 34 0 59-25 59-59Z" fill="#d9b66d"/>
  </g>
  <text x="82" y="215" fill="#263b28" font-family="Arial, sans-serif" font-size="78" font-weight="900">Espíritu Floral</text>
  <text x="86" y="292" fill="#526b45" font-family="Arial, sans-serif" font-size="38" font-weight="700">Materas y suculentas para decorar y regalar</text>
  <text x="88" y="360" fill="#6d7165" font-family="Arial, sans-serif" font-size="28">Catálogo · Carrito · Compra por WhatsApp</text>
</svg>
